<svg width="15" height="15" viewBox="0 0 15 15" fill="none" xmlns="http://www.w3.org/2000/svg">
<path d="M7.53211 9.26814L8.41586 10.1519L11.0684 7.50002L8.41648 4.84814L7.53273 5.73252L8.67461 6.87502L3.96398 6.87502L3.96398 8.12502L8.67461 8.12502L7.53211 9.26814Z" fill="black"/>
<path fill-rule="evenodd" clip-rule="evenodd" d="M12.3612 12.3612C15.0462 9.67625 15.0462 5.32375 12.3612 2.63875C9.67625 -0.0462501 5.32375 -0.0462503 2.63875 2.63875C-0.0462501 5.32375 -0.0462503 9.67625 2.63875 12.3612C5.32375 15.0462 9.67625 15.0462 12.3612 12.3612ZM11.4775 11.4775C12.5324 10.4226 13.125 8.99185 13.125 7.5C13.125 6.00815 12.5324 4.5774 11.4775 3.5225C10.4226 2.4676 8.99185 1.87497 7.5 1.87497C6.00815 1.87497 4.5774 2.4676 3.5225 3.5225C2.4676 4.5774 1.87497 6.00815 1.87497 7.5C1.87497 8.99185 2.4676 10.4226 3.5225 11.4775C4.5774 12.5324 6.00815 13.125 7.5 13.125C8.99185 13.125 10.4226 12.5324 11.4775 11.4775Z" fill="black"/>
</svg>
