<svg width="16" height="16" viewBox="0 0 16 16" fill="none" xmlns="http://www.w3.org/2000/svg">
<path d="M10.75 8.75L13.5 6M7.25 6.75L9.25 8.75M2.5 10L5.75 6.75" stroke="black" stroke-linecap="round" stroke-linejoin="round"/>
<path d="M14.25 6C14.6642 6 15 5.66421 15 5.25C15 4.83579 14.6642 4.5 14.25 4.5C13.8358 4.5 13.5 4.83579 13.5 5.25C13.5 5.66421 13.8358 6 14.25 6Z" stroke="black" stroke-linecap="round" stroke-linejoin="round"/>
<path d="M10 10.25C10.4142 10.25 10.75 9.91421 10.75 9.5C10.75 9.08579 10.4142 8.75 10 8.75C9.58579 8.75 9.25 9.08579 9.25 9.5C9.25 9.91421 9.58579 10.25 10 10.25Z" stroke="black" stroke-linecap="round" stroke-linejoin="round"/>
<path d="M6.5 6.75C6.91421 6.75 7.25 6.41421 7.25 6C7.25 5.58579 6.91421 5.25 6.5 5.25C6.08579 5.25 5.75 5.58579 5.75 6C5.75 6.41421 6.08579 6.75 6.5 6.75Z" stroke="black" stroke-linecap="round" stroke-linejoin="round"/>
<path d="M1.75 11.5C2.16421 11.5 2.5 11.1642 2.5 10.75C2.5 10.3358 2.16421 10 1.75 10C1.33579 10 1 10.3358 1 10.75C1 11.1642 1.33579 11.5 1.75 11.5Z" stroke="black" stroke-linecap="round" stroke-linejoin="round"/>
</svg>
