<svg width="26" height="19" viewBox="0 0 26 19" fill="none" xmlns="http://www.w3.org/2000/svg">
<path d="M23.0202 13H9.6356M4.91118 13H2.97852M4.91118 13C4.91118 12.3736 5.16 11.7729 5.6029 11.33C6.0458 10.8871 6.6465 10.6383 7.27285 10.6383C7.8992 10.6383 8.4999 10.8871 8.9428 11.33C9.3857 11.7729 9.63452 12.3736 9.63452 13C9.63452 13.6263 9.3857 14.227 8.9428 14.6699C8.4999 15.1128 7.8992 15.3616 7.27285 15.3616C6.6465 15.3616 6.0458 15.1128 5.6029 14.6699C5.16 14.227 4.91118 13.6263 4.91118 13ZM23.0202 5.84238H19.6564M14.932 5.84238H2.97852M14.932 5.84238C14.932 5.21603 15.1808 4.61533 15.6237 4.17243C16.0666 3.72953 16.6673 3.48071 17.2937 3.48071C17.6038 3.48071 17.9109 3.5418 18.1975 3.66048C18.484 3.77917 18.7443 3.95313 18.9636 4.17243C19.1829 4.39173 19.3569 4.65208 19.4756 4.93861C19.5943 5.22514 19.6553 5.53224 19.6553 5.84238C19.6553 6.15252 19.5943 6.45962 19.4756 6.74615C19.3569 7.03268 19.1829 7.29303 18.9636 7.51233C18.7443 7.73163 18.484 7.90559 18.1975 8.02428C17.9109 8.14296 17.6038 8.20405 17.2937 8.20405C16.6673 8.20405 16.0666 7.95523 15.6237 7.51233C15.1808 7.06943 14.932 6.46873 14.932 5.84238Z" stroke="black" stroke-width="1.5" stroke-miterlimit="10" stroke-linecap="round"/>
</svg>
